<?xml version="1.0" encoding="UTF-8" standalone="no"?>
<!DOCTYPE svg PUBLIC "-//W3C//DTD SVG 1.1//EN" "http://www.w3.org/Graphics/SVG/1.1/DTD/svg11.dtd">
<svg version="1.1" xmlns="http://www.w3.org/2000/svg" xmlns:xlink="http://www.w3.org/1999/xlink" preserveAspectRatio="xMidYMid meet" viewBox="-6.06647 -2.4185788244395097 171.68647 32.41857882443951" width="167.69" height="28.42"><defs><path d="M14.46 9.9C14.91 10.22 15.32 10.64 15.32 11.57C15.32 11.64 15.32 12.2 15.32 12.27C15.32 13.2 14.92 13.62 14.48 13.94C14.48 13.95 14.46 13.95 14.44 13.97L-2.5 24.51C-2.51 24.52 -2.52 24.52 -2.52 24.52C-2.73 24.63 -2.95 24.69 -3.17 24.69C-3.38 24.69 -3.59 24.63 -3.77 24.52C-4.11 24.31 -4.32 23.93 -4.32 23.49C-4.32 23.42 -4.33 22.89 -4.33 22.83C-4.33 21.84 -3.96 21.52 -3.54 21.26C-3.54 21.26 -3.54 21.26 -3.53 21.26L11.29 11.93C2.36 6.38 -2.6 3.3 -3.59 2.68C-4.01 2.43 -4.38 2.11 -4.39 1.12C-4.39 1.06 -4.39 0.53 -4.39 0.46C-4.39 0.02 -4.18 -0.37 -3.83 -0.58C-3.47 -0.8 -3.01 -0.8 -2.58 -0.57C-2.58 -0.57 -2.57 -0.57 -2.55 -0.55L14.45 9.88C14.46 9.89 14.46 9.9 14.46 9.9ZM-5.06 1.12C-5.06 1.06 -5.07 0.53 -5.07 0.46C-5.07 -0.19 -4.76 -0.81 -4.19 -1.16C-4.19 -1.16 -4.18 -1.16 -4.18 -1.16C-3.59 -1.51 -2.87 -1.49 -2.27 -1.17C-2.27 -1.17 -2.27 -1.17 -2.27 -1.17L-2.21 -1.14L14.84 9.33C14.87 9.35 14.88 9.36 14.88 9.36C15.13 9.55 15.42 9.79 15.64 10.15C15.87 10.54 16 11 16 11.57C16 11.57 16 11.57 16 11.57C16 11.62 16 11.85 16 12.27C16 12.27 16 12.27 16 12.27C16 12.84 15.88 13.3 15.65 13.68C15.43 14.06 15.13 14.31 14.88 14.49C14.88 14.49 14.87 14.5 14.86 14.5L14.8 14.54L-2.15 25.09L-2.19 25.12C-2.2 25.12 -2.2 25.12 -2.2 25.12C-2.5 25.28 -2.83 25.37 -3.17 25.37C-3.5 25.37 -3.83 25.28 -4.11 25.11C-4.12 25.11 -4.12 25.1 -4.12 25.1C-4.68 24.76 -5 24.15 -5 23.49C-5 23.49 -5 23.49 -5 23.49C-5 23.42 -5 22.9 -5.01 22.83C-5.01 22.25 -4.9 21.79 -4.67 21.42C-4.44 21.05 -4.14 20.84 -3.91 20.69C-3.91 20.69 -3.91 20.69 -3.9 20.69L10.02 11.94C1.64 6.73 -3.02 3.84 -3.95 3.26C-3.95 3.26 -3.95 3.26 -3.95 3.26C-4.18 3.12 -4.49 2.91 -4.72 2.54C-4.95 2.17 -5.06 1.7 -5.06 1.13C-5.06 1.13 -5.06 1.13 -5.06 1.12Z" id="e5qVZ3UEu"></path><path d="M14.46 9.9C14.46 9.9 14.46 9.89 14.45 9.89L-2.55 -0.55C-2.57 -0.56 -2.58 -0.57 -2.58 -0.57C-3 -0.79 -3.47 -0.79 -3.83 -0.58C-4.18 -0.37 -4.39 0.02 -4.39 0.46C-4.39 0.53 -4.38 1.06 -4.38 1.12C-4.38 2.11 -4.01 2.43 -3.59 2.69C-2.6 3.3 2.36 6.38 11.3 11.93L-3.53 21.26C-3.54 21.26 -3.54 21.26 -3.54 21.26C-3.96 21.52 -4.33 21.84 -4.33 22.83C-4.33 22.9 -4.32 23.42 -4.32 23.49C-4.32 23.93 -4.11 24.31 -3.77 24.53C-3.59 24.63 -3.38 24.69 -3.16 24.69C-2.95 24.69 -2.73 24.63 -2.52 24.52C-2.52 24.52 -2.51 24.52 -2.5 24.51L14.44 13.97C14.46 13.96 14.48 13.95 14.48 13.94C14.92 13.62 15.33 13.2 15.32 12.27C15.32 12.22 15.32 11.99 15.32 11.57C15.05 10.67 14.76 10.11 14.46 9.9Z" id="g33rx5MSfF"></path><path d="M158.28 18.49C158.17 18.89 157.99 19.27 157.74 19.63C157.5 19.97 157.19 20.27 156.83 20.53C156.49 20.78 156.1 20.97 155.64 21.1C155.21 21.25 154.75 21.33 154.28 21.33C152.39 21.33 150.96 20.67 150 19.34C149.04 18 148.55 16.06 148.55 13.53C148.55 10.99 149.04 9.07 150 7.74C150.96 6.42 152.39 5.76 154.28 5.76C155.25 5.76 156.1 6.02 156.83 6.55C157.59 7.08 158.07 7.76 158.28 8.59C158.29 8.59 158.34 8.59 158.42 8.59L158.42 0L162.62 0L162.62 20.99L158.42 20.99L158.42 18.49C158.34 18.49 158.29 18.49 158.28 18.49ZM157.63 17.36C158.16 16.96 158.42 16.42 158.42 15.74C158.42 15.3 158.42 11.78 158.42 11.34C158.42 10.66 158.16 10.13 157.63 9.76C157.12 9.36 156.47 9.16 155.67 9.16C154.88 9.16 154.22 9.44 153.69 10.01C153.18 10.56 152.92 11.31 152.92 12.25C152.92 12.51 152.92 14.57 152.92 14.83C152.92 15.78 153.18 16.53 153.69 17.1C154.22 17.65 154.88 17.92 155.67 17.92C156.47 17.92 157.12 17.74 157.63 17.36Z" id="b1YUpviEtH"></path><path d="M132.96 6.1L137.16 6.1L137.16 8.62C137.26 8.62 137.32 8.62 137.33 8.62C137.6 7.85 138.06 7.18 138.72 6.61C139.38 6.04 140.3 5.76 141.47 5.76C143 5.76 144.16 6.27 144.93 7.29C145.73 8.31 146.12 9.77 146.12 11.66C146.12 12.28 146.12 15.39 146.12 20.99L141.92 20.99C141.92 15.59 141.92 12.6 141.92 12C141.92 11.03 141.77 10.32 141.47 9.87C141.17 9.4 140.63 9.16 139.85 9.16C139.51 9.16 139.18 9.21 138.86 9.3C138.54 9.38 138.25 9.51 137.98 9.7C137.74 9.89 137.54 10.13 137.39 10.41C137.24 10.67 137.16 10.99 137.16 11.34C137.16 11.99 137.16 15.2 137.16 20.99L132.96 20.99L132.96 6.1Z" id="dzRbiJjs"></path><path d="M125.29 18.49C125.15 18.87 124.97 19.23 124.75 19.57C124.54 19.91 124.26 20.21 123.92 20.48C123.58 20.74 123.18 20.95 122.7 21.1C122.25 21.25 121.72 21.33 121.12 21.33C119.58 21.33 118.42 20.83 117.63 19.82C116.85 18.8 116.46 17.35 116.46 15.46C116.46 14.83 116.46 11.71 116.46 6.1L120.66 6.1C120.66 11.49 120.66 14.49 120.66 15.09C120.66 16 120.82 16.7 121.14 17.19C121.47 17.68 122.01 17.92 122.79 17.92C123.11 17.92 123.43 17.88 123.75 17.78C124.08 17.69 124.36 17.56 124.6 17.39C124.85 17.2 125.05 16.97 125.2 16.7C125.35 16.44 125.43 16.13 125.43 15.77C125.43 15.12 125.43 11.9 125.43 6.1L129.62 6.1L129.62 20.99L125.43 20.99L125.43 18.49C125.34 18.49 125.29 18.49 125.29 18.49Z" id="b144yal9eV"></path><path d="M104.29 20.79C103.43 20.43 102.71 19.91 102.1 19.23C101.52 18.55 101.06 17.73 100.74 16.76C100.42 15.8 100.26 14.72 100.26 13.53C100.26 12.34 100.42 11.26 100.74 10.3C101.06 9.33 101.52 8.52 102.1 7.86C102.71 7.18 103.43 6.66 104.29 6.3C105.15 5.94 106.14 5.76 107.23 5.76C108.33 5.76 109.3 5.94 110.16 6.3C111.03 6.66 111.75 7.18 112.34 7.86C112.94 8.52 113.41 9.33 113.73 10.3C114.05 11.26 114.21 12.34 114.21 13.53C114.21 14.72 114.05 15.8 113.73 16.76C113.41 17.73 112.94 18.55 112.34 19.23C111.75 19.91 111.03 20.43 110.16 20.79C109.3 21.15 108.33 21.33 107.23 21.33C106.14 21.33 105.15 21.15 104.29 20.79ZM109.16 17.24C109.62 16.73 109.84 16.01 109.84 15.06C109.84 14.76 109.84 12.33 109.84 12.03C109.84 11.08 109.62 10.35 109.16 9.84C108.71 9.33 108.07 9.08 107.23 9.08C106.4 9.08 105.76 9.33 105.31 9.84C104.85 10.35 104.63 11.08 104.63 12.03C104.63 12.33 104.63 14.76 104.63 15.06C104.63 16.01 104.85 16.73 105.31 17.24C105.76 17.75 106.4 18.01 107.23 18.01C108.07 18.01 108.71 17.75 109.16 17.24Z" id="jmVkXZKcd"></path><path d="M90.43 6.1L94.63 6.1L94.63 9.33C94.71 9.33 94.76 9.33 94.77 9.33C94.85 8.91 94.98 8.52 95.17 8.14C95.36 7.74 95.6 7.39 95.91 7.09C96.23 6.79 96.61 6.55 97.04 6.38C97.48 6.19 97.99 6.1 98.57 6.1C98.62 6.1 98.87 6.1 99.31 6.1L99.31 10.01C98.68 10.01 98.33 10.01 98.26 10.01C97.03 10.01 96.11 10.17 95.51 10.49C94.92 10.82 94.63 11.41 94.63 12.28C94.63 12.86 94.63 15.76 94.63 20.99L90.43 20.99L90.43 6.1Z" id="a19q1jJa18"></path><path d="M88.71 24.16C88.44 24.77 88 25.28 87.38 25.7C86.75 26.13 85.92 26.45 84.88 26.66C83.86 26.89 82.59 27 81.08 27C79.79 27 78.7 26.91 77.79 26.74C76.9 26.59 76.17 26.37 75.61 26.06C75.06 25.78 74.65 25.42 74.39 24.99C74.14 24.57 74.02 24.09 74.02 23.54C74.02 22.71 74.26 22.06 74.76 21.58C75.25 21.11 75.93 20.82 76.8 20.7C76.8 20.67 76.8 20.42 76.8 20.39C76.08 20.26 75.54 19.96 75.18 19.48C74.82 18.99 74.64 18.43 74.64 17.78C74.64 17.39 74.72 17.05 74.87 16.76C75.04 16.46 75.25 16.2 75.49 16C75.76 15.77 76.06 15.59 76.4 15.46C76.74 15.32 77.08 15.22 77.42 15.15C77.42 15.13 77.42 15.04 77.42 15.03C76.51 14.62 75.84 14.05 75.41 13.33C74.97 12.59 74.76 11.74 74.76 10.78C74.76 9.26 75.28 8.05 76.32 7.15C77.37 6.22 78.98 5.76 81.14 5.76C82.12 5.76 82.96 5.85 83.66 6.04C83.66 5.98 83.66 5.53 83.66 5.47C83.66 4.68 83.85 4.11 84.23 3.77C84.63 3.41 85.18 3.23 85.9 3.23C86.06 3.23 86.84 3.23 88.26 3.23L88.26 6.35L84.97 6.35C84.97 6.46 84.97 6.51 84.97 6.52C85.84 6.94 86.48 7.52 86.89 8.25C87.31 8.97 87.52 9.81 87.52 10.78C87.52 12.27 86.99 13.47 85.93 14.38C84.89 15.27 83.29 15.71 81.14 15.71C80.17 15.71 79.29 15.61 78.5 15.4C78.06 15.68 77.85 16.08 77.85 16.59C77.85 16.95 77.98 17.23 78.24 17.44C78.53 17.63 78.99 17.73 79.63 17.73C80.06 17.73 83.51 17.73 83.94 17.73C85.76 17.73 87.07 18.1 87.89 18.86C88.72 19.62 89.13 20.68 89.13 22.07C89.13 22.86 88.99 23.56 88.71 24.16ZM84.68 21.64C84.34 21.41 83.75 21.3 82.9 21.3C82.38 21.3 78.3 21.3 77.79 21.3C77.6 21.49 77.46 21.7 77.36 21.92C77.29 22.17 77.25 22.41 77.25 22.63C77.25 23.18 77.49 23.58 77.96 23.82C78.43 24.09 79.24 24.22 80.37 24.22C80.54 24.22 81.9 24.22 82.07 24.22C83.21 24.22 84.01 24.09 84.48 23.82C84.96 23.58 85.19 23.18 85.19 22.63C85.19 22.2 85.02 21.87 84.68 21.64ZM82.98 12.45C83.4 12.09 83.6 11.58 83.6 10.92C83.6 10.89 83.6 10.61 83.6 10.58C83.6 9.92 83.4 9.42 82.98 9.08C82.58 8.72 81.97 8.54 81.14 8.54C80.3 8.54 79.68 8.72 79.26 9.08C78.87 9.42 78.67 9.92 78.67 10.58C78.67 10.61 78.67 10.89 78.67 10.92C78.67 11.58 78.87 12.09 79.26 12.45C79.68 12.79 80.3 12.96 81.14 12.96C81.97 12.96 82.58 12.79 82.98 12.45Z" id="bpMfP97Gd"></path><path d="M74.4 6.1C70.96 16.41 69.05 22.14 68.67 23.28C68.29 24.44 67.75 25.29 67.05 25.84C66.37 26.39 65.39 26.66 64.1 26.66C63.93 26.66 63.06 26.66 61.49 26.66L61.49 23.4L64.3 23.4L64.81 21.75L59.59 6.1L63.76 6.1L65.94 13.05L67.02 17.36L67.19 17.36L68.3 13.05L70.48 6.1L74.4 6.1Z" id="afXIyED7K"></path><path d="M55.15 20.28C54.66 19.81 54.35 19.17 54.22 18.38C54.2 18.38 54.06 18.38 54.04 18.38C53.82 19.34 53.32 20.08 52.54 20.59C51.77 21.08 50.81 21.33 49.68 21.33C48.18 21.33 47.04 20.93 46.25 20.14C45.45 19.34 45.05 18.29 45.05 16.99C45.05 15.42 45.62 14.26 46.76 13.5C47.91 12.72 49.47 12.34 51.44 12.34C51.59 12.34 52.38 12.34 53.79 12.34C53.79 11.78 53.79 11.46 53.79 11.4C53.79 10.68 53.6 10.12 53.22 9.7C52.84 9.26 52.21 9.05 51.32 9.05C50.49 9.05 49.83 9.23 49.34 9.59C48.85 9.95 48.44 10.35 48.12 10.81C47.87 10.58 45.87 8.81 45.62 8.59C46.23 7.7 46.98 7.01 47.89 6.52C48.82 6.01 50.06 5.76 51.63 5.76C53.75 5.76 55.34 6.22 56.4 7.15C57.46 8.07 57.99 9.43 57.99 11.2C57.99 11.64 57.99 13.81 57.99 17.73L59.38 17.73L59.38 20.99L57.05 20.99C56.12 20.83 55.49 20.59 55.15 20.28ZM53.02 17.95C53.53 17.65 53.79 17.16 53.79 16.48C53.79 16.36 53.79 15.77 53.79 14.72C52.56 14.72 51.88 14.72 51.75 14.72C50.1 14.72 49.28 15.28 49.28 16.39C49.28 16.44 49.28 16.78 49.28 16.82C49.28 17.37 49.45 17.77 49.79 18.04C50.13 18.28 50.61 18.41 51.24 18.41C51.94 18.41 52.53 18.26 53.02 17.95Z" id="c2k9mxnVdk"></path><path d="M39.02 19.94C38.36 19.24 38.03 18.23 38.03 16.9C38.03 15.78 38.03 10.14 38.03 0L42.23 0L42.23 17.73L44.1 17.73L44.1 20.99L42.2 20.99C40.53 20.75 39.47 20.4 39.02 19.94Z" id="aa5KF6TMR1"></path><path d="M20.21 1.19C25.83 1.19 28.95 1.19 29.57 1.19C30.5 1.19 31.33 1.35 32.07 1.67C32.8 1.98 33.43 2.4 33.94 2.95C34.47 3.5 34.87 4.17 35.16 4.96C35.44 5.74 35.58 6.59 35.58 7.52C35.58 8.46 35.44 9.32 35.16 10.1C34.87 10.87 34.47 11.53 33.94 12.08C33.43 12.63 32.8 13.07 32.07 13.39C31.33 13.69 30.5 13.84 29.57 13.84C29.23 13.84 27.55 13.84 24.52 13.84L24.52 20.99L20.21 20.99L20.21 1.19ZM29.06 10.1C29.7 10.1 30.2 9.94 30.56 9.61C30.94 9.27 31.13 8.78 31.13 8.14C31.13 8.01 31.13 7.02 31.13 6.89C31.13 6.25 30.94 5.77 30.56 5.45C30.2 5.11 29.7 4.93 29.06 4.93C28.76 4.93 27.24 4.93 24.52 4.93L24.52 10.1C27.24 10.1 28.76 10.1 29.06 10.1Z" id="f6h6SxH01"></path></defs><g><g><use xlink:href="#e5qVZ3UEu" opacity="1" fill="#cb1e40" fill-opacity="1"></use><g><use xlink:href="#e5qVZ3UEu" opacity="1" fill-opacity="0" stroke="#000000" stroke-width="1" stroke-opacity="0"></use></g></g><g><use xlink:href="#g33rx5MSfF" opacity="1" fill="#cb1e40" fill-opacity="1"></use><g><use xlink:href="#g33rx5MSfF" opacity="1" fill-opacity="0" stroke="#000000" stroke-width="1" stroke-opacity="0"></use></g></g><g><use xlink:href="#b1YUpviEtH" opacity="1" fill="#1d1d1d" fill-opacity="1"></use><g><use xlink:href="#b1YUpviEtH" opacity="1" fill-opacity="0" stroke="#000000" stroke-width="1" stroke-opacity="0"></use></g></g><g><use xlink:href="#dzRbiJjs" opacity="1" fill="#1d1d1d" fill-opacity="1"></use><g><use xlink:href="#dzRbiJjs" opacity="1" fill-opacity="0" stroke="#000000" stroke-width="1" stroke-opacity="0"></use></g></g><g><use xlink:href="#b144yal9eV" opacity="1" fill="#1d1d1d" fill-opacity="1"></use><g><use xlink:href="#b144yal9eV" opacity="1" fill-opacity="0" stroke="#000000" stroke-width="1" stroke-opacity="0"></use></g></g><g><use xlink:href="#jmVkXZKcd" opacity="1" fill="#1d1d1d" fill-opacity="1"></use><g><use xlink:href="#jmVkXZKcd" opacity="1" fill-opacity="0" stroke="#000000" stroke-width="1" stroke-opacity="0"></use></g></g><g><use xlink:href="#a19q1jJa18" opacity="1" fill="#1d1d1d" fill-opacity="1"></use><g><use xlink:href="#a19q1jJa18" opacity="1" fill-opacity="0" stroke="#000000" stroke-width="1" stroke-opacity="0"></use></g></g><g><use xlink:href="#bpMfP97Gd" opacity="1" fill="#1d1d1d" fill-opacity="1"></use><g><use xlink:href="#bpMfP97Gd" opacity="1" fill-opacity="0" stroke="#000000" stroke-width="1" stroke-opacity="0"></use></g></g><g><use xlink:href="#afXIyED7K" opacity="1" fill="#1d1d1d" fill-opacity="1"></use><g><use xlink:href="#afXIyED7K" opacity="1" fill-opacity="0" stroke="#000000" stroke-width="1" stroke-opacity="0"></use></g></g><g><use xlink:href="#c2k9mxnVdk" opacity="1" fill="#1d1d1d" fill-opacity="1"></use><g><use xlink:href="#c2k9mxnVdk" opacity="1" fill-opacity="0" stroke="#000000" stroke-width="1" stroke-opacity="0"></use></g></g><g><use xlink:href="#aa5KF6TMR1" opacity="1" fill="#1d1d1d" fill-opacity="1"></use><g><use xlink:href="#aa5KF6TMR1" opacity="1" fill-opacity="0" stroke="#000000" stroke-width="1" stroke-opacity="0"></use></g></g><g><use xlink:href="#f6h6SxH01" opacity="1" fill="#1d1d1d" fill-opacity="1"></use><g><use xlink:href="#f6h6SxH01" opacity="1" fill-opacity="0" stroke="#000000" stroke-width="1" stroke-opacity="0"></use></g></g></g></svg>